<svg enable-background="new 0 0 512 512" viewBox="0 0 512 512" xmlns="http://www.w3.org/2000/svg"><path d="m501.039 343.664c-28.601 118.577-161.232 188.305-296.24 155.741s-221.269-155.089-192.668-273.666 161.232-188.305 296.24-155.741 221.269 155.088 192.668 273.666z" fill="#ff473e"/><path d="m361.189 121.157c-1.252.274-2.497.09-3.562-.439l-.749-.373s-.533-.265-1.471-.804c-.916-.553-2.334-1.315-3.992-2.383-.418-.265-.87-.536-1.317-.838-.226-.147-.458-.298-.694-.452-.233-.119-.471-.241-.713-.365-.98-.484-1.962-1.037-3.023-1.587-1.093-.539-2.04-1.186-3.294-1.746-1.219-.575-2.426-1.212-3.693-1.834-.648-.291-1.224-.686-1.901-.947-.657-.274-1.327-.553-2.009-.837-.682-.272-1.333-.581-1.999-.879-.33-.149-.663-.3-.998-.452-.334-.149-.703-.244-1.053-.368-1.425-.461-2.784-1.008-4.175-1.513-1.456-.402-2.886-.824-4.309-1.249l-1.063-.32c-.372-.08-.754-.145-1.12-.235-.731-.167-1.467-.335-2.208-.505-.741-.159-1.439-.369-2.201-.493-.759-.129-1.521-.259-2.287-.39-.749-.136-1.502-.273-2.256-.411l-.561-.104-.6-.056-1.182-.154-2.345-.319c-.783-.102-1.524-.251-2.373-.269-.815-.083-1.628-.154-2.432-.253-.797-.13-1.598-.222-2.38-.391-1.608-.27-3.299-.477-4.898-.91-.816-.168-1.597-.465-2.416-.665-.834-.231-1.672-.415-2.497-.69-1.661-.48-3.283-1.131-4.924-1.74-1.681-.595-3.349-1.164-4.994-1.777-1.645-.615-3.256-1.25-4.903-1.731-2.282-.709-4.471-1.414-6.596-2.112-.546.639-1.093 1.269-1.652 1.876-.968.981-1.628 2.024-2.457 2.95-.785.939-1.494 1.827-2.219 2.635-.632.831-1.219 1.587-1.771 2.249-.501.633-.963 1.176-1.353 1.631-.444 1.131-.941 2.337-1.498 3.625-.832 1.919-1.792 3.98-2.856 6.159-.258.548-.546 1.087-.824 1.636-.271.563-.562 1.124-.857 1.688-.583 1.123-1.202 2.274-1.834 3.437-1.268 2.318-2.64 4.695-4.082 7.068-2.861 4.76-6.015 9.547-9.231 14.012-1.618 2.229-3.24 4.383-4.882 6.405-1.612 2.031-3.221 3.939-4.766 5.69-3.086 3.503-5.943 6.372-8.076 8.346-1.044.995-1.984 1.74-2.564 2.263-.292.264-.551.445-.711.578-.161.12-.244.182-.244.182l-.787.586c-4.625 3.446-11.168 2.49-14.613-2.135-.751-1.008-1.302-2.147-1.642-3.285 0 0-.129-.439-.372-1.261-.196-.793-.573-1.979-.882-3.438-.34-1.469-.685-3.232-1.003-5.239-.322-2.008-.605-4.255-.817-6.686-.21-2.43-.362-5.05-.39-7.792-.066-2.754.008-5.625.184-8.581.178-2.954.484-5.986.901-9.05.418-3.066.97-6.16 1.646-9.238.676-3.082 1.459-6.148 2.409-9.146.356-1.131.728-2.252 1.121-3.364-1.113.191-2.23.384-3.354.574-3.645.692-7.34 1.483-11.068 2.32-3.733.858-7.48 1.83-11.237 2.8-3.733 1.054-7.482 2.079-11.174 3.161-3.662 1.133-7.339 2.178-10.838 3.339-3.547 1.09-6.925 2.257-10.2 3.303-3.337 1.138-6.396 2.18-9.108 3.105-1.374.508-2.699.979-3.983 1.387-1.271.413-2.305.807-3.397 1.133-1.049.344-2.013.625-2.937 1.021-.889.365-1.676.649-2.318.878-1.278.461-2.007.668-2.007.668-3.522 1.002-7.189-1.04-8.191-4.562-.215-.754-.286-1.542-.237-2.282 0 0 .054-.756.242-2.101.092-.674.21-1.503.384-2.448.099-.482.133-.972.315-1.555.169-.568.349-1.172.539-1.809.371-1.279.878-2.734 1.43-4.2.543-1.466 1.195-3.021 1.933-4.679.772-1.618 1.654-3.314 2.63-5.094 1.009-1.738 2.138-3.532 3.371-5.382 2.535-3.607 5.537-7.392 9.13-10.977 3.545-3.658 7.695-7.079 12.249-10.311 4.584-3.179 9.637-6.055 15.035-8.487 5.427-2.37 11.176-4.335 17.114-5.736 5.963-1.318 12.08-2.132 18.174-2.302 4.266-.08 8.5.134 12.633.646-.642-1.202-1.449-2.519-2.483-3.966-.546-.801-1.224-1.63-1.865-2.516-.745-.838-1.446-1.702-2.257-2.613-1.56-1.782-3.349-3.607-5.102-5.431-1.892-1.903-3.681-3.703-5.333-5.364-1.733-1.752-3.386-3.426-4.876-4.985-1.474-1.567-2.755-2.952-3.826-4.211-1.168-1.206-2.042-2.324-2.656-3.012-.307-.344-.53-.659-.685-.852-.154-.198-.233-.3-.233-.3l-.497-.641c-2.01-2.593-1.538-6.325 1.056-8.335.623-.483 1.341-.829 2.055-1.03 0 0 .457-.126 1.302-.32.84-.175 2.091-.502 3.646-.777 1.619-.24 3.652-.589 5.919-.773 1.142-.102 2.357-.211 3.638-.326 1.292-.089 2.633-.084 4.059-.125 1.422-.028 2.922.013 4.486.028 1.565.03 3.18.208 4.867.326 3.371.386 6.986.901 10.815 1.932 3.82.979 7.88 2.353 12.001 4.421 4.14 2.009 8.325 4.704 12.307 8.058.986.854 1.972 1.725 2.95 2.616.943.931 1.882 1.881 2.813 2.848.903.986 1.798 1.994 2.684 3.016.891 1.021 1.677 2.095 2.506 3.164 1.912 2.598 3.629 5.293 5.079 8.014 1.308-1.298 2.662-2.563 4.11-3.716 2.393-2.08 5.01-3.823 7.657-5.563 1.35-.794 2.71-1.584 4.089-2.342 1.368-.794 2.794-1.38 4.201-2.06 5.664-2.55 11.53-4.412 17.309-5.416 5.776-1.043 11.472-1.453 16.869-1.174 5.402.237 10.524.995 15.228 2.226 4.711 1.164 9.005 2.811 12.813 4.592 3.805 1.844 7.127 3.803 9.907 5.875 1.385 1.036 2.67 1.957 3.788 3.004 1.129 1.003 2.125 1.865 3.075 2.852.931.924 1.726 1.761 2.379 2.52.538.724.98 1.377 1.337 1.91.363.519.621.964.802 1.246.179.287.272.435.272.435 1.908 3.053.981 7.074-2.072 8.983-.672.42-1.42.707-2.154.86 0 0-.171.035-.503.103-.329.063-.83.183-1.456.278-.632.109-1.41.238-2.307.348-.811.217-1.7.434-2.653.662-.92.248-2.06.482-3.239.753-.595.145-1.194.266-1.816.395-.622.147-1.267.3-1.932.457-2.621.6-5.499 1.32-8.491 2.053-3.005.786-6.135 1.563-9.316 2.484-1.588.427-3.185.887-4.782 1.365.206.107.413.215.62.322 2.293 1.111 4.513 2.596 6.688 3.995 1.076.704 2.148 1.406 3.214 2.104 1.042.743 2.043 1.591 3.041 2.375.984.798 1.962 1.59 2.933 2.377.479.397.96.778 1.424 1.182.449.43.896.859 1.341 1.286 1.753 1.73 3.51 3.331 5.053 5.072 1.489 1.806 2.907 3.564 4.254 5.262.331.43.683.833.983 1.274.296.442.591.881.883 1.316.578.872 1.153 1.715 1.679 2.574.526.848 1.044 1.681 1.552 2.499.515.805.894 1.67 1.326 2.47.826 1.628 1.625 3.151 2.322 4.629.359.72.668 1.482.958 2.227.29.734.571 1.448.844 2.139.53 1.379 1.039 2.637 1.444 3.827.103.295.205.583.304.865.07.269.139.532.207.789.131.513.257 1.002.375 1.466.49 1.847.802 3.347 1.047 4.348.222 1.016.341 1.558.341 1.558.633 2.924-1.217 5.81-4.138 6.448z" fill="#2ba52e"/><path d="m436.213 277.861c-12.422 0-23.878-8.112-27.568-20.633-9.414-31.943-26.264-58.173-47.444-73.857-12.762-9.45-15.447-27.457-5.996-40.219 9.45-12.763 27.457-15.447 40.219-5.997 31.169 23.081 55.455 59.95 68.384 103.816 4.489 15.232-4.22 31.22-19.452 35.709-2.713.8-5.452 1.181-8.143 1.181z" fill="#f88"/></svg>